<?xml version="1.0" encoding="utf-8"?>
<!-- Generator: Adobe Illustrator 28.0.0, SVG Export Plug-In . SVG Version: 6.00 Build 0)  -->
<svg version="1.1" id="Layer_1" xmlns="http://www.w3.org/2000/svg" xmlns:xlink="http://www.w3.org/1999/xlink" x="0px" y="0px"
	 viewBox="0 0 432 144" style="enable-background:new 0 0 432 144;" xml:space="preserve">
<style type="text/css">
	.st0{fill:#1E1D1E;}
	.st1{fill:#FFFFFF;}
</style>
<g>
	<path class="st0" d="M215.9,34.8c-20.3,0-36.8,16.5-36.8,36.8c0,20.3,16.5,36.8,36.8,36.8c20.3,0,36.8-16.5,36.8-36.8
		C252.7,51.3,236.2,34.8,215.9,34.8z"/>
	<g>
		<path class="st1" d="M199.3,83.5l8.8-11.8c-3.4-3.7-8.2-9.5-9.5-11.1c0,0.2,0,0.3,0,0.5v21c0,0.6,0.2,1.2,0.6,1.6
			C199.1,83.7,199.2,83.6,199.3,83.5z"/>
		<path class="st1" d="M212.4,73c2.1,1.8,3.8,2.8,6.9-0.2c3.5-3.3,12.5-13.8,12.5-13.9c0,0,0,0,0,0c-0.4-0.2-0.8-0.3-1.2-0.3h-6.1
			h-1h-22.5c-0.4,0-0.8,0.1-1.2,0.3C200.3,59.3,210,70.9,212.4,73z"/>
		<path class="st1" d="M223.6,71.5l8.9,11.9c0.1,0.1,0.1,0.2,0.2,0.3c0.4-0.4,0.6-1,0.6-1.6v-21c0-0.2,0-0.3,0-0.5
			C231.9,62.2,227.2,67.7,223.6,71.5z"/>
		<path class="st1" d="M222.1,73.1c-0.5,0.5-0.9,0.9-1.2,1.2c-1.9,1.8-3.5,2.5-5,2.5c-1.7,0-3.2-0.9-4.8-2.2
			c-0.3-0.3-0.8-0.8-1.4-1.3L201,84.7c0,0,0.1,0,0.1,0h29.6c0,0,0.1,0,0.1,0L222.1,73.1z"/>
	</g>
</g>
</svg>
